<svg version="1.1" id="Layer_1" xmlns="http://www.w3.org/2000/svg" xmlns:xlink="http://www.w3.org/1999/xlink" x="0px" y="0px"
	 width="100%" viewBox="0 0 500 500" enable-background="new 0 0 500 500" xml:space="preserve">
<path fill="#FFFFFF" opacity="1.000000" stroke="none" 
	d="
M316.000000,501.000000 
	C210.666687,501.000000 105.833382,501.000000 1.000056,501.000000 
	C1.000037,334.333405 1.000037,167.666794 1.000019,1.000146 
	C167.666565,1.000097 334.333130,1.000097 500.999756,1.000049 
	C500.999847,167.666519 500.999847,334.333038 500.999939,500.999786 
	C439.500000,501.000000 378.000000,501.000000 316.000000,501.000000 
M229.265488,362.777374 
	C237.205704,355.938385 245.464661,349.430908 253.007797,342.178864 
	C263.086792,332.488892 272.405304,322.010162 282.433685,312.264557 
	C291.337219,303.612030 301.479340,297.214722 314.704742,297.747620 
	C324.311462,298.134674 332.447235,305.430695 333.209564,314.714020 
	C334.113525,325.721863 328.222321,334.072479 318.057098,336.013031 
	C314.859344,336.623444 311.602325,336.923431 308.421570,337.358795 
	C308.421570,357.954803 308.421570,378.189209 308.421570,398.678040 
	C313.227539,398.678040 317.738800,399.119232 322.140106,398.609955 
	C367.620483,393.347412 397.312347,353.615753 395.117371,314.765503 
	C393.353241,283.541504 379.278198,259.824310 351.984711,245.220001 
	C321.918182,229.131851 291.852142,233.077881 262.990295,249.563461 
	C248.534485,257.820465 236.707184,269.369232 225.287079,281.322083 
	C224.126434,282.536835 222.854782,283.645508 220.724701,285.666992 
	C220.724701,217.672028 220.724701,151.096146 220.724701,84.408760 
	C199.952530,84.408760 179.595032,84.408760 159.339783,84.408760 
	C159.339783,184.371017 159.339783,283.917786 159.339783,383.761597 
	C184.971542,384.443909 207.972900,377.740845 229.265488,362.777374 
z"/>
<path fill="#759FE5" opacity="1.000000" stroke="none" 
	d="
M228.954208,362.955017 
	C207.972900,377.740845 184.971542,384.443909 159.339783,383.761597 
	C159.339783,283.917786 159.339783,184.371017 159.339783,84.408760 
	C179.595032,84.408760 199.952530,84.408760 220.724701,84.408760 
	C220.724701,151.096146 220.724701,217.672028 220.724701,285.666992 
	C222.854782,283.645508 224.126434,282.536835 225.287079,281.322083 
	C236.707184,269.369232 248.534485,257.820465 262.990295,249.563461 
	C291.852142,233.077881 321.918182,229.131851 351.984711,245.220001 
	C379.278198,259.824310 393.353241,283.541504 395.117371,314.765503 
	C397.312347,353.615753 367.620483,393.347412 322.140106,398.609955 
	C317.738800,399.119232 313.227539,398.678040 308.421570,398.678040 
	C308.421570,378.189209 308.421570,357.954803 308.421570,337.358795 
	C311.602325,336.923431 314.859344,336.623444 318.057098,336.013031 
	C328.222321,334.072479 334.113525,325.721863 333.209564,314.714020 
	C332.447235,305.430695 324.311462,298.134674 314.704742,297.747620 
	C301.479340,297.214722 291.337219,303.612030 282.433685,312.264557 
	C272.405304,322.010162 263.086792,332.488892 253.007797,342.178864 
	C245.464661,349.430908 237.205704,355.938385 228.954208,362.955017 
M188.983551,327.627930 
	C182.820892,329.570343 176.658218,331.512756 170.259338,333.529602 
	C170.259338,337.696014 170.259338,342.119354 170.259338,347.200806 
	C175.172073,346.221649 179.754242,345.574219 184.188889,344.379272 
	C205.213394,338.713898 220.228958,324.385223 234.836029,309.324829 
	C246.176926,297.631927 257.366272,285.663513 269.748413,275.142090 
	C284.603607,262.519257 302.602722,257.250977 321.997314,260.324615 
	C357.023560,265.875610 377.852936,301.376984 365.832336,334.903107 
	C358.784119,354.561127 344.222778,366.311493 323.924683,371.117493 
	C322.197205,371.526459 319.591003,372.999451 319.407104,374.269745 
	C318.822449,378.308411 319.190735,382.485016 319.190735,386.750427 
	C320.549957,386.874939 321.366638,387.089142 322.145447,386.993835 
	C324.121155,386.752045 326.102478,386.471191 328.041992,386.031586 
	C354.652374,380.000061 372.666077,363.927307 380.825073,338.117828 
	C388.937286,312.456299 383.408356,288.827667 365.177063,269.034851 
	C342.453918,244.365433 308.430878,241.047455 278.210144,254.453873 
	C257.922913,263.453644 242.835770,279.040833 228.027435,294.946533 
	C216.559784,307.263977 205.005844,319.537903 188.983551,327.627930 
M285.915436,295.365417 
	C289.128998,293.615662 292.189880,291.457672 295.583282,290.188904 
	C308.290955,285.437378 321.287537,283.815216 332.512482,293.083191 
	C352.214600,309.350403 346.739136,337.827057 322.714783,346.637970 
	C321.382477,347.126617 319.535034,348.415833 319.389862,349.523956 
	C318.950378,352.879120 319.230988,356.328552 319.230988,360.275818 
	C337.126221,356.887817 348.801483,347.415314 355.307068,331.253571 
	C364.561279,308.263519 350.438324,279.545044 326.545746,272.908051 
	C308.027740,267.764008 291.233368,271.937531 276.941223,283.823822 
	C265.086914,293.682617 254.472580,305.070892 243.628967,316.096344 
	C230.979340,328.958130 218.535431,342.198151 201.689606,349.495514 
	C191.756424,353.798431 181.068954,356.360046 170.391327,359.811249 
	C170.391327,363.143585 170.391327,367.520416 170.391327,372.181335 
	C186.312027,371.606293 200.544174,366.908142 213.880432,359.322876 
	C231.969727,349.034302 245.702316,333.752960 260.027191,319.087646 
	C268.026184,310.898590 276.863922,303.528870 285.915436,295.365417 
M169.971725,188.500000 
	C169.971725,232.586075 169.971725,276.672150 169.971725,321.267883 
	C172.918350,320.704773 175.174683,320.286133 177.425751,319.840790 
	C182.187637,318.898682 184.265976,316.809174 184.243454,311.153259 
	C183.965332,241.362518 184.061157,171.570282 184.060516,101.778419 
	C184.060486,99.690926 184.060501,97.603439 184.060501,95.413765 
	C179.030853,95.413765 174.780823,95.413765 169.971695,95.413765 
	C169.971695,126.302063 169.971695,156.901031 169.971725,188.500000 
M195.146957,181.500000 
	C195.146957,224.193420 195.146957,266.886841 195.146957,310.955688 
	C198.995514,307.656830 201.631088,305.187439 204.484131,303.001984 
	C208.648468,299.812012 209.970490,295.912598 209.952774,290.557159 
	C209.744720,227.605133 209.819199,164.652176 209.819199,101.699478 
	C209.819199,99.612900 209.819199,97.526329 209.819199,95.405029 
	C204.564255,95.405029 200.142975,95.405029 195.147202,95.405029 
	C195.147202,123.973740 195.147202,152.236877 195.146957,181.500000 
z"/>
<path fill="#FDFDFF" opacity="1.000000" stroke="none" 
	d="
M189.314789,327.443237 
	C205.005844,319.537903 216.559784,307.263977 228.027435,294.946533 
	C242.835770,279.040833 257.922913,263.453644 278.210144,254.453873 
	C308.430878,241.047455 342.453918,244.365433 365.177063,269.034851 
	C383.408356,288.827667 388.937286,312.456299 380.825073,338.117828 
	C372.666077,363.927307 354.652374,380.000061 328.041992,386.031586 
	C326.102478,386.471191 324.121155,386.752045 322.145447,386.993835 
	C321.366638,387.089142 320.549957,386.874939 319.190735,386.750427 
	C319.190735,382.485016 318.822449,378.308411 319.407104,374.269745 
	C319.591003,372.999451 322.197205,371.526459 323.924683,371.117493 
	C344.222778,366.311493 358.784119,354.561127 365.832336,334.903107 
	C377.852936,301.376984 357.023560,265.875610 321.997314,260.324615 
	C302.602722,257.250977 284.603607,262.519257 269.748413,275.142090 
	C257.366272,285.663513 246.176926,297.631927 234.836029,309.324829 
	C220.228958,324.385223 205.213394,338.713898 184.188889,344.379272 
	C179.754242,345.574219 175.172073,346.221649 170.259338,347.200806 
	C170.259338,342.119354 170.259338,337.696014 170.259338,333.529602 
	C176.658218,331.512756 182.820892,329.570343 189.314789,327.443237 
z"/>
<path fill="#FCFDFF" opacity="1.000000" stroke="none" 
	d="
M285.619568,295.577698 
	C276.863922,303.528870 268.026184,310.898590 260.027191,319.087646 
	C245.702316,333.752960 231.969727,349.034302 213.880432,359.322876 
	C200.544174,366.908142 186.312027,371.606293 170.391327,372.181335 
	C170.391327,367.520416 170.391327,363.143585 170.391327,359.811249 
	C181.068954,356.360046 191.756424,353.798431 201.689606,349.495514 
	C218.535431,342.198151 230.979340,328.958130 243.628967,316.096344 
	C254.472580,305.070892 265.086914,293.682617 276.941223,283.823822 
	C291.233368,271.937531 308.027740,267.764008 326.545746,272.908051 
	C350.438324,279.545044 364.561279,308.263519 355.307068,331.253571 
	C348.801483,347.415314 337.126221,356.887817 319.230988,360.275818 
	C319.230988,356.328552 318.950378,352.879120 319.389862,349.523956 
	C319.535034,348.415833 321.382477,347.126617 322.714783,346.637970 
	C346.739136,337.827057 352.214600,309.350403 332.512482,293.083191 
	C321.287537,283.815216 308.290955,285.437378 295.583282,290.188904 
	C292.189880,291.457672 289.128998,293.615662 285.619568,295.577698 
z"/>
<path fill="#FFFFFF" opacity="1.000000" stroke="none" 
	d="
M169.971710,188.000000 
	C169.971695,156.901031 169.971695,126.302063 169.971695,95.413765 
	C174.780823,95.413765 179.030853,95.413765 184.060501,95.413765 
	C184.060501,97.603439 184.060486,99.690926 184.060516,101.778419 
	C184.061157,171.570282 183.965332,241.362518 184.243454,311.153259 
	C184.265976,316.809174 182.187637,318.898682 177.425751,319.840790 
	C175.174683,320.286133 172.918350,320.704773 169.971725,321.267883 
	C169.971725,276.672150 169.971725,232.586075 169.971710,188.000000 
z"/>
<path fill="#F8FAFE" opacity="1.000000" stroke="none" 
	d="
M195.147079,181.000000 
	C195.147202,152.236877 195.147202,123.973740 195.147202,95.405029 
	C200.142975,95.405029 204.564255,95.405029 209.819199,95.405029 
	C209.819199,97.526329 209.819199,99.612900 209.819199,101.699478 
	C209.819199,164.652176 209.744720,227.605133 209.952774,290.557159 
	C209.970490,295.912598 208.648468,299.812012 204.484131,303.001984 
	C201.631088,305.187439 198.995514,307.656830 195.146957,310.955688 
	C195.146957,266.886841 195.146957,224.193420 195.147079,181.000000 
z"/>
</svg>